<?xml version="1.0" encoding="utf-8"?>
<!DOCTYPE svg
  PUBLIC '-//W3C//DTD SVG 1.0//EN'
  'http://www.w3.org/TR/2001/REC-SVG-20010904/DTD/svg10.dtd'>
<svg width="510" height="278" preserveAspectRatio="xMinYMin meet" viewBox="0 0 510 278" xmlns="http://www.w3.org/2000/svg" version="1.0" fill-rule="evenodd" xmlns:xlink="http://www.w3.org/1999/xlink">
	<title>...</title>
	<desc>...</desc>
	<clipPath id="clip">
		<rect x="0" y="0" width="510" height="278"/>
	</clipPath>
	<g id="group" transform="scale(1,-1) translate(0,-278)" style="clip-path: url(#clip)">
		<g transform="">
			<rect x="2" y="238" width="96" height="34" rx="5" ry="5" style="stroke: rgb(50%,57%,63%); stroke-linecap: butt; stroke-width: 0.7; fill: rgb(93%,95%,97%); fill-rule: evenodd;"/>
			<text x="29.994999999999997" y="255" style="font-family: Helvetica-Bold; font-size: 10px;fill: rgb(14%,23%,32%); stroke:none;" transform="translate(0,510) scale(1,-1)">Browser</text>
			<text x="50.0" y="239" style="font-family: Helvetica; font-size: 9px;fill: rgb(0%,0%,0%); stroke:none;" transform="translate(0,478) scale(1,-1)"></text>
			<path d="M 50,12 L 50,235 Z" style="stroke: rgb(50%,57%,63%); stroke-linecap: butt; stroke-width: 1; stroke-dasharray: 3, 3;"/>
			<rect x="207" y="238" width="96" height="34" rx="5" ry="5" style="stroke: rgb(50%,57%,63%); stroke-linecap: butt; stroke-width: 0.7; fill: rgb(93%,95%,97%); fill-rule: evenodd;"/>
			<text x="239.435" y="255" style="font-family: Helvetica-Bold; font-size: 10px;fill: rgb(14%,23%,32%); stroke:none;" transform="translate(0,510) scale(1,-1)">Server</text>
			<text x="255.0" y="239" style="font-family: Helvetica; font-size: 9px;fill: rgb(0%,0%,0%); stroke:none;" transform="translate(0,478) scale(1,-1)"></text>
			<path d="M 255,12 L 255,235 Z" style="stroke: rgb(50%,57%,63%); stroke-linecap: butt; stroke-width: 1; stroke-dasharray: 3, 3;"/>
			<rect x="412" y="238" width="96" height="34" rx="5" ry="5" style="stroke: rgb(50%,57%,63%); stroke-linecap: butt; stroke-width: 0.7; fill: rgb(93%,95%,97%); fill-rule: evenodd;"/>
			<text x="439.715" y="255" style="font-family: Helvetica-Bold; font-size: 10px;fill: rgb(14%,23%,32%); stroke:none;" transform="translate(0,510) scale(1,-1)">Provider</text>
			<text x="460.0" y="239" style="font-family: Helvetica; font-size: 9px;fill: rgb(0%,0%,0%); stroke:none;" transform="translate(0,478) scale(1,-1)"></text>
			<path d="M 460,12 L 460,235 Z" style="stroke: rgb(50%,57%,63%); stroke-linecap: butt; stroke-width: 1; stroke-dasharray: 3, 3;"/>
			<path d="M 50,206 L 255,206 Z" style="stroke: rgb(50%,57%,63%); stroke-linecap: butt; stroke-width: 1;"/>
			<polygon points="255 206, 249.4736 208.3365, 249.4736 203.6635" style="stroke: rgb(50%,57%,63%); stroke-linecap: butt; stroke-width: 1; fill: rgb(50%,57%,63%); fill-rule: evenodd;"/>
			<text x="86.7015" y="214" style="font-family: Helvetica; font-size: 8.5px;fill: rgb(14%,23%,32%); stroke:none;" transform="translate(0,428) scale(1,-1)">1. Authenticated request + consent</text>
			<rect x="155" y="174" width="200" height="31" style="stroke: rgb(50%,57%,63%); stroke-linecap: butt; stroke-width: 0.4; fill: rgb(100%,100%,100%); fill-rule: evenodd;"/>
			<text x="187.9095" y="195" style="font-family: Helvetica; font-size: 8.5px;fill: rgb(14%,23%,32%); stroke:none;" transform="translate(0,390) scale(1,-1)">2. Validate state and derive allowed</text>
			<text x="243.899" y="185" style="font-family: Helvetica; font-size: 8.5px;fill: rgb(14%,23%,32%); stroke:none;" transform="translate(0,370) scale(1,-1)">topics</text>
			<rect x="155" y="145" width="200" height="31" style="stroke: rgb(50%,57%,63%); stroke-linecap: butt; stroke-width: 0.4; fill: rgb(100%,100%,100%); fill-rule: evenodd;"/>
			<text x="191.454" y="156" style="font-family: Helvetica; font-size: 8.5px;fill: rgb(14%,23%,32%); stroke:none;" transform="translate(0,312) scale(1,-1)">3. Reserve budget in PostgreSQL</text>
			<path d="M 255,119 L 460,119 Z" style="stroke: rgb(50%,57%,63%); stroke-linecap: butt; stroke-width: 1;"/>
			<polygon points="460 119, 454.4736 121.3365, 454.4736 116.6635" style="stroke: rgb(50%,57%,63%); stroke-linecap: butt; stroke-width: 1; fill: rgb(50%,57%,63%); fill-rule: evenodd;"/>
			<text x="278.00374999999997" y="127" style="font-family: Helvetica; font-size: 8.5px;fill: rgb(14%,23%,32%); stroke:none;" transform="translate(0,254) scale(1,-1)">4. Pinned model + bounded JSON context</text>
			<path d="M 460,90 L 255,90 Z" style="stroke: rgb(50%,57%,63%); stroke-linecap: butt; stroke-width: 1;"/>
			<polygon points="255 90, 260.5264 87.66349, 260.5264 92.33651" style="stroke: rgb(50%,57%,63%); stroke-linecap: butt; stroke-width: 1; fill: rgb(50%,57%,63%); fill-rule: evenodd;"/>
			<text x="292.7725" y="98" style="font-family: Helvetica; font-size: 8.5px;fill: rgb(14%,23%,32%); stroke:none;" transform="translate(0,196) scale(1,-1)">5. JSON result and optional usage</text>
			<rect x="155" y="58" width="200" height="31" style="stroke: rgb(50%,57%,63%); stroke-linecap: butt; stroke-width: 0.4; fill: rgb(100%,100%,100%); fill-rule: evenodd;"/>
			<text x="191.92575" y="69" style="font-family: Helvetica; font-size: 8.5px;fill: rgb(14%,23%,32%); stroke:none;" transform="translate(0,138) scale(1,-1)">6. Settle usage; validate topic IDs</text>
			<path d="M 255,32 L 50,32 Z" style="stroke: rgb(50%,57%,63%); stroke-linecap: butt; stroke-width: 1;"/>
			<polygon points="50 32, 55.52637 29.66349, 55.52637 34.33651" style="stroke: rgb(50%,57%,63%); stroke-linecap: butt; stroke-width: 1; fill: rgb(50%,57%,63%); fill-rule: evenodd;"/>
			<text x="94.513" y="40" style="font-family: Helvetica; font-size: 8.5px;fill: rgb(14%,23%,32%); stroke:none;" transform="translate(0,80) scale(1,-1)">7. Advisory text + allowed links</text>
		</g>
	</g>
</svg>
