<?xml version="1.0" encoding="utf-8"?>
<!DOCTYPE svg
  PUBLIC '-//W3C//DTD SVG 1.0//EN'
  'http://www.w3.org/TR/2001/REC-SVG-20010904/DTD/svg10.dtd'>
<svg width="800" height="450" preserveAspectRatio="xMinYMin meet" viewBox="0 0 800 450" xmlns="http://www.w3.org/2000/svg" version="1.0" fill-rule="evenodd" xmlns:xlink="http://www.w3.org/1999/xlink">
	<title>...</title>
	<desc>...</desc>
	<clipPath id="clip">
		<rect x="0" y="0" width="800" height="450"/>
	</clipPath>
	<g id="group" transform="scale(1,-1) translate(0,-450)" style="clip-path: url(#clip)">
		<g transform="">
			<rect x="0" y="340" width="360" height="90" rx="5" ry="0" style="stroke: rgb(38%,44%,52%); stroke-linecap: butt; stroke-width: 0.8; fill: rgb(94%,96%,98%); fill-rule: evenodd;"/>
			<text x="12" y="407" style="font-family: Helvetica-Bold; font-size: 13px;fill: rgb(7%,13%,21%); stroke:none;" transform="translate(0,814) scale(1,-1)">1 Choose your direction</text>
			<text x="12" y="388" style="font-family: Helvetica; font-size: 10.5px;fill: rgb(7%,13%,21%); stroke:none;" transform="translate(0,776) scale(1,-1)">Explore a career or focus on one skill</text>
			<text x="12" y="372" style="font-family: Helvetica; font-size: 10.5px;fill: rgb(7%,13%,21%); stroke:none;" transform="translate(0,744) scale(1,-1)">Pick an industry and target level</text>
			<rect x="440" y="340" width="360" height="90" rx="5" ry="0" style="stroke: rgb(38%,44%,52%); stroke-linecap: butt; stroke-width: 0.8; fill: rgb(94%,96%,98%); fill-rule: evenodd;"/>
			<text x="452" y="407" style="font-family: Helvetica-Bold; font-size: 13px;fill: rgb(7%,13%,21%); stroke:none;" transform="translate(0,814) scale(1,-1)">2 Choose your starting point</text>
			<text x="452" y="388" style="font-family: Helvetica; font-size: 10.5px;fill: rgb(7%,13%,21%); stroke:none;" transform="translate(0,776) scale(1,-1)">Describe your experience</text>
			<text x="452" y="372" style="font-family: Helvetica; font-size: 10.5px;fill: rgb(7%,13%,21%); stroke:none;" transform="translate(0,744) scale(1,-1)">Optional placement check</text>
			<rect x="440" y="185" width="360" height="90" rx="5" ry="0" style="stroke: rgb(38%,44%,52%); stroke-linecap: butt; stroke-width: 0.8; fill: rgb(94%,96%,98%); fill-rule: evenodd;"/>
			<text x="452" y="252" style="font-family: Helvetica-Bold; font-size: 13px;fill: rgb(7%,13%,21%); stroke:none;" transform="translate(0,504) scale(1,-1)">3 Set a realistic pace</text>
			<text x="452" y="233" style="font-family: Helvetica; font-size: 10.5px;fill: rgb(7%,13%,21%); stroke:none;" transform="translate(0,466) scale(1,-1)">Accept the suggestion or change it</text>
			<text x="452" y="217" style="font-family: Helvetica; font-size: 10.5px;fill: rgb(7%,13%,21%); stroke:none;" transform="translate(0,434) scale(1,-1)">See the estimated time commitment</text>
			<rect x="0" y="185" width="360" height="90" rx="5" ry="0" style="stroke: rgb(38%,44%,52%); stroke-linecap: butt; stroke-width: 0.8; fill: rgb(94%,96%,98%); fill-rule: evenodd;"/>
			<text x="12" y="252" style="font-family: Helvetica-Bold; font-size: 13px;fill: rgb(7%,13%,21%); stroke:none;" transform="translate(0,504) scale(1,-1)">4 Start learning</text>
			<text x="12" y="233" style="font-family: Helvetica; font-size: 10.5px;fill: rgb(7%,13%,21%); stroke:none;" transform="translate(0,466) scale(1,-1)">First lesson and guided foundations</text>
			<text x="12" y="217" style="font-family: Helvetica; font-size: 10.5px;fill: rgb(7%,13%,21%); stroke:none;" transform="translate(0,434) scale(1,-1)">Then follow your roadmap</text>
			<rect x="0" y="30" width="360" height="90" rx="5" ry="0" style="stroke: rgb(38%,44%,52%); stroke-linecap: butt; stroke-width: 0.8; fill: rgb(94%,96%,98%); fill-rule: evenodd;"/>
			<text x="12" y="97" style="font-family: Helvetica-Bold; font-size: 13px;fill: rgb(7%,13%,21%); stroke:none;" transform="translate(0,194) scale(1,-1)">5 Practise and revisit</text>
			<text x="12" y="78" style="font-family: Helvetica; font-size: 10.5px;fill: rgb(7%,13%,21%); stroke:none;" transform="translate(0,156) scale(1,-1)">Run exercises and take quizzes</text>
			<text x="12" y="62" style="font-family: Helvetica; font-size: 10.5px;fill: rgb(7%,13%,21%); stroke:none;" transform="translate(0,124) scale(1,-1)">Use feedback and return for reviews</text>
			<rect x="440" y="30" width="360" height="90" rx="5" ry="0" style="stroke: rgb(38%,44%,52%); stroke-linecap: butt; stroke-width: 0.8; fill: rgb(94%,96%,98%); fill-rule: evenodd;"/>
			<text x="452" y="97" style="font-family: Helvetica-Bold; font-size: 13px;fill: rgb(7%,13%,21%); stroke:none;" transform="translate(0,194) scale(1,-1)">6 Show your work</text>
			<text x="452" y="78" style="font-family: Helvetica; font-size: 10.5px;fill: rgb(7%,13%,21%); stroke:none;" transform="translate(0,156) scale(1,-1)">Build a project and explain decisions</text>
			<text x="452" y="62" style="font-family: Helvetica; font-size: 10.5px;fill: rgb(7%,13%,21%); stroke:none;" transform="translate(0,124) scale(1,-1)">Export notes and prepare applications</text>
			<path d="M 360,385 L 440,385 Z" style="stroke: rgb(15%,33%,78%); stroke-linecap: butt; stroke-width: 1.1;"/>
			<polygon points="440 385, 433.5526 387.7259, 433.5526 382.2741" style="stroke: rgb(15%,33%,78%); stroke-linecap: butt; stroke-width: 1; fill: rgb(15%,33%,78%); fill-rule: evenodd;"/>
			<path d="M 620,340 L 620,275 Z" style="stroke: rgb(15%,33%,78%); stroke-linecap: butt; stroke-width: 1.1;"/>
			<polygon points="620 275, 622.7259 281.4474, 617.2741 281.4474" style="stroke: rgb(15%,33%,78%); stroke-linecap: butt; stroke-width: 1; fill: rgb(15%,33%,78%); fill-rule: evenodd;"/>
			<path d="M 440,230 L 360,230 Z" style="stroke: rgb(15%,33%,78%); stroke-linecap: butt; stroke-width: 1.1;"/>
			<polygon points="360 230, 366.4474 227.2741, 366.4474 232.7259" style="stroke: rgb(15%,33%,78%); stroke-linecap: butt; stroke-width: 1; fill: rgb(15%,33%,78%); fill-rule: evenodd;"/>
			<path d="M 180,185 L 180,120 Z" style="stroke: rgb(15%,33%,78%); stroke-linecap: butt; stroke-width: 1.1;"/>
			<polygon points="180 120, 182.7259 126.4474, 177.2741 126.4474" style="stroke: rgb(15%,33%,78%); stroke-linecap: butt; stroke-width: 1; fill: rgb(15%,33%,78%); fill-rule: evenodd;"/>
			<path d="M 360,75 L 440,75 Z" style="stroke: rgb(15%,33%,78%); stroke-linecap: butt; stroke-width: 1.1;"/>
			<polygon points="440 75, 433.5526 77.72593, 433.5526 72.27407" style="stroke: rgb(15%,33%,78%); stroke-linecap: butt; stroke-width: 1; fill: rgb(15%,33%,78%); fill-rule: evenodd;"/>
		</g>
	</g>
</svg>
